<!-- Google Material Symbols Outlined: browse, Apache-2.0.
     Source: google/material-design-icons at 737e3324305806514d7909874fa1818ae1808232,
     symbols/web/browse/materialsymbolsoutlined/browse_24px.svg.
     The favicon uses the approved light Primary color for white browser tab surfaces. -->
<svg xmlns="http://www.w3.org/2000/svg" viewBox="0 -960 960 960" width="48" height="48"><path fill="#153A32" d="M120-440v-320q0-33 23.5-56.5T200-840h240v400H120Zm240-80Zm160-320h240q33 0 56.5 23.5T840-760v160H520v-240Zm0 720v-400h320v320q0 33-23.5 56.5T760-120H520ZM120-360h320v240H200q-33 0-56.5-23.5T120-200v-160Zm240 80Zm240-400Zm0 240Zm-400-80h160v-240H200v240Zm400-160h160v-80H600v80Zm0 240v240h160v-240H600ZM200-280v80h160v-80H200Z"/></svg>
